<svg xmlns="http://www.w3.org/2000/svg" viewBox="70 0 1920 1080">
  <defs>
    <style>.cls-1{fill:#fff;}.cls-2{fill:#fff;}.cls-3{fill:#fff;}.cls-4{fill:#fff;}.cls-5{fill:#fff;}.cls-6{fill:#fff;}.cls-7{fill:#fff;}.cls-8{fill:#fe8464;}.cls-9{fill:#fe6e9a;}.cls-10{fill:#fff;}.cls-11{fill:#fff;}</style>
  </defs><g id="Ebene_1" data-name="Ebene 1"><path class="cls-1" d="M1716.38,338.46a20.38,20.38,0,0,1,14.53-8.73c2.53-.33,5.2.45,7.8.72,9.56,5.59,11.94,15.44,14.72,25,4.23,14.51,8.15,29.11,12.46,43.6,3.9,13.06,8.17,26,12.22,39,4,12.67,8,25.32,11.72,38.05,2.78,9.42,5.24,18.95,7.74,28.46,2,7.61,3.89,15.25,5.76,22.9q3.69,15,7.26,30.11a5.77,5.77,0,0,1,0,1.25c-2.45-5.25-4.65-10.64-7.4-15.73a110.11,110.11,0,0,0-30.09-35.75,100.1,100.1,0,0,0-42.63-18.93c-7.44-1.42-15-1.45-22.51-1.33-.67,0-1.34,0-2,0a2.93,2.93,0,0,0,.07-1c-2.85-8.58-5.74-17.13-8.58-25.71q-5.15-15.57-10.23-31.17c-2.09-6.42-4.25-12.83-6.18-19.3-1.85-6.18-3.59-12.4-5.1-18.67a14.87,14.87,0,0,1,1.69-10.53c2.34-4.35,6.35-6.71,10.92-8.22a8.4,8.4,0,0,1,8,1.29,16.59,16.59,0,0,1,4.08,3.93c5.9,9,11.63,18,17.43,27.09.51.79,1.11,1.54,1.67,2.3l.37-.24-.62-2.48L1717.71,393c-1-7.29-2.12-14.55-3-21.85-1-8.83-1.75-17.7-.15-26.55A61.47,61.47,0,0,1,1716.38,338.46Z"/><path class="cls-2" d="M372.92,506.12l-42.84-5-60-.9c-2.25,20.74-.9,61.33-1.35,92.89-.45,21.65,1.8,43.74,5,110l1.8,23.45c-14.43,9.47-41.93,11.27-84.32,9l-1.81-31.12,5-116.34L198,499.36a370,370,0,0,0-59.07.45l-35.17,6.31C101,492.59,101,471.4,101,464.63c0-2.7,3.61-25.25,6.76-35.62l28.41,3.61c28.41.45,51-.45,101.46,0,36.08.45,95.6-3.61,95.6-3.61l39.69-2.25C376.07,438.48,375.62,487.63,372.92,506.12Z"/><path class="cls-3" d="M503.27,627.33c0-3-.37-6.7-.37-10.05-1.12-20.09-8.56-108.65-10.79-132.46,22.32-6.33,55.07-5.58,67-3.72,2.61,18.23.75,36.46,2.61,56.93,1.86,22.32,2.23,57.67,4.46,91.91,1.49,23.81,4.1,83.72,6,107.9l-64.75,1.49-1.49-52.84C504.76,662.68,504.39,643.33,503.27,627.33Z"/><path class="cls-4" d="M769.38,704.29V704c-8.87,20-28.91,36.79-71.29,36.79-24.63,0-47.63-9.85-60.77-25.62-28.25-33.51-32.19-82.78-32.19-116.61,0-50.26,28.25-120.89,96.25-120.89,45.33,0,76.21,33.18,79.49,73.58l1.65,24.31c-22.67,8.87-40.08,8.21-60.45,7.23,2-14.46,2.63-23.32,2.3-27.59,0-2.3-.33-4.6-.33-6.25,0-14.12-9.85-23-22.66-23-26.61,0-37.78,41.72-37.78,68,0,10.18,0,25.29,1.64,40.73,1,14.13,4.27,29.56,10.52,41.06,5.91,11.17,14.45,17.08,23.65,17.08,8.21,0,15.44-2.95,19.38-6.57,4.93-7.88,7.22-19.05,7.22-41.39l57.16,2.63-.65,11.83C779.89,678.34,777.26,689.51,769.38,704.29Z"/><path class="cls-5" d="M981.67,517.49h.39l-46,37.72h.4c-3.15,2.36-12.18,8.25-24.76,16.11l.39-.39-5.89,3.92c18.86,20,30.26,33,35.76,38.12a568.85,568.85,0,0,0,49.9,46.76l31,25.93c-2.75,11.79-5.89,22.4-10.21,30.65a80.4,80.4,0,0,1-20.83,24.76l-43.61-38.9c-13.76-12.58-43.62-46.37-58.16-67.59-.79,22.4,0,58.94-1.18,74.66-.39,5.11.39,24,0,27.51-24,6.28-46,4.71-66.8-5.9l1.57-22c.39-43.62,1.57-87.63,2-131.64,0-11.39.78-30.25,2.35-55.8,1.18-25.93,1.58-87.62,1.58-99.8,24.75-5.9,47.15-5.5,66.8-1.18l-5.5,90c17.68-12.57,43.61-30.25,68-52.65l21.22-19.26c20.44,14.15,34.19,29.87,41.66,45.19L1002.1,499.8Z"/><path class="cls-6" d="M465.19,633.47s-34.16,6.24-50.26,6.24l1-24.31c0-5.58-1.65-12.15-5.92-11.16-8.21,2-12.15,4.26-25.29,19l-7.89,11.82c-.32,12.82-1.31,27.27-.65,42,.33,15.44,0,17.74,2.62,56.17l-60.44-1,.33-26.28c2-38.11,3.29-57.82,2.3-102.82-.33-17.74-1-26.28-2.63-45,12.81-5.59,54.86-10.51,54.86-10.51.66,14.12,2,30.87,2,30.87C382.41,572,399.82,553,410,551.68c17.08-2.3,28.25,2.3,38.44,13.47,9.52,9.52,16.42,32.84,16.09,47Z"/><path class="cls-7" d="M523,455.09c-47.89-1.75-49-63.57,0-65.08C571.14,390.16,570.6,455.33,523,455.09Z"/><path class="cls-8" d="M1419.59,394.49c-6,46.49-12,93-17.83,139.49-1.46,11.8-9.28,48.8-22.87,50.76-15.55,2.24-31.1,4.48-45.81-8.66-12.35-.91-8.14-40.64-6.57-50.5,5.39-33.65,10.23-67.39,15.73-101,4.28-26.11,5.35-52.23,1.59-78.44-4.32-30.13-20.15-49.51-42.3-52.3-27.44-3.45-59.85,14.15-66.81,42.1-5.63,22.58-10.1,21.38-32,26.37-2,.46-10.18-.77-12.3-.67-39.67,1.79-43.51-7.09-30.6-46.46,20.37-62.12,83.6-101.52,152.3-94.9,55.79,5.38,95.92,50.06,105.35,116.77A293.59,293.59,0,0,1,1419.59,394.49Z"/><path class="cls-9" d="M1390.41,698.49c-1.69,46.53,7.55,41.52-45.85,40.28-6-.14-11.92-2.81-17.83-2.61-18.9.67-20.59-10-17.29-24.59.67-3,1.28-5.91,1.71-8.9,6.14-42.63,6.13-42.63,50.25-39.61C1391.89,665.14,1391.89,665.14,1390.41,698.49Z"/><path class="cls-10" d="M1187.11,741.33c-5-6.45-10-31.17-10.39-44.42-12.89,10-32.24,19-46.92,19.34-24-.36-39.77-9.31-52.66-23.28-12.18-13.61-18.63-31.17-19-50.87-1.07-21.14,4.3-40.84,15.76-61.26,15.77-26.86,39.41-37.61,72.72-39,6.81-.36,15.41,2.15,20.42,4.65-.72-21.13-2.15-40.83-5.37-59.46-2.51-17.91-4.66-31.52-5-41.91-.71-11.82-2.28-7.94.94-26.2,26.87-4.66,46.5-5.26,63.34,5.49l.56,3.51a141.38,141.38,0,0,0-1.07,25.8c.35,6.8,1.43,18.63,3.22,34,2.87,28.3,4.66,102.45,7.52,142.57,2.51,31.52,6.45,70.21,15.76,96.36L1236.19,732C1227.59,737,1216.48,740.25,1187.11,741.33Zm-14-92.78c-.36-7.17-1.43-12.9-1.43-16.48-.72-7.17-1.43-21.85-2.51-34-7.16-3.94-11.82-5-13.25-4.66-8.24,1.44-16.84,3.94-25.08,15.41a57,57,0,0,0-11.1,36.18c.71,13.61,6.09,19.7,15,19.7C1144.84,664.67,1157.38,659.29,1173.14,648.55Z"/><path class="cls-3" d="M1535.78,738.38c-4.64,0-10.06,0-32.1-3.87-1.94-39.83-7.74-116.79-15.47-188,20.88-6.57,42.93-9.28,65.36-6.19l2.7,24.37-.38-.78c1.16,7,3.09,35.58,6.19,70.39,1.54,17,5,53.75,7,98.61C1569,733,1547,737.6,1535.78,738.38Z"/><path class="cls-7" d="M1512.94,499.34c-18.17,0-38.67-14.69-38.67-34s19.72-33.65,38.67-33.65c20.5,0,37.13,14.31,38.68,33.65C1550.46,485.42,1533.05,499.34,1512.94,499.34Z"/><path class="cls-11" d="M1725.15,747.91a9.07,9.07,0,0,1,1.57-.76c2.71-.7,5.43-1.38,8.16-2a9.12,9.12,0,0,1,1.74-.07Z"/><path class="cls-11" d="M1609.75,670.37c-.16-2.6-.5-5.2-.44-7.8.14-6.06.15-12.15.8-18.17.59-5.44,4.77-8.35,9.28-10.64s9.55-2,14.44-2.31a77,77,0,0,1,10.83-.26c7.23.62,11.88,4.79,13.79,11.69a153.61,153.61,0,0,0,13.89,34.41c6,10.74,14.67,18.5,26.53,22.45,13.53,4.5,25.26,1.52,35.41-8.32,9.25-9,15-20,18.88-32.1a171.7,171.7,0,0,0,8.11-61.22c-.81-16.16-4.59-31.45-13.61-45.14a53.37,53.37,0,0,0-14.52-14.75c-7.9-5.41-16.28-6.08-25.09-2.75a77,77,0,0,0-33.68,24.25A68.51,68.51,0,0,0,1661.9,583c-1.91,6.46-3.47,13-4.93,19.63-.75,3.4-2.25,5.58-5.61,7-10.58,4.6-21.66,5.69-33,5.58a13.75,13.75,0,0,1-2-.23c-6.21-1-8.95-3.92-9.55-10.14a135,135,0,0,1,.52-33.25,82.37,82.37,0,0,1,7.94-25.79c4.15-8,10-14.88,16.09-21.4,12.76-13.53,28.25-23.11,45.08-30.72a89.88,89.88,0,0,1,27.68-7.3c.73-.08,1.44-.29,2.17-.44h.08l.53.14.07,0c.68,0,1.35,0,2,0,7.54-.12,15.07-.09,22.51,1.33a100.1,100.1,0,0,1,42.63,18.93,110.11,110.11,0,0,1,30.09,35.75c2.75,5.09,5,10.48,7.4,15.73l1.14,3.08q1.61,4.29,3.23,8.6l3.28,13.25a13,13,0,0,0,0,1.39c.46,5.25,1.29,10.5,1.35,15.75a201.13,201.13,0,0,1-9.38,63.84c-8.09,25.38-21.56,47.29-42.42,64.28-7.9,6.43-16.42,11.83-26.22,15-1.31.41-2.54,1-3.8,1.57l-2.15.53a9.12,9.12,0,0,0-1.74.07c-2.73.63-5.45,1.31-8.16,2a9.07,9.07,0,0,0-1.57.76l-1.79.44a4.9,4.9,0,0,0-1.2-.09,110.75,110.75,0,0,1-22.94,1.06c-21.17-1.49-40.22-8.54-56.22-22.64-12.77-11.24-21.16-25.68-28-41.09-1.33-3-2.53-6.09-3.79-9.13Z"/><path class="cls-1" d="M1700.4,487.45l.54.15Z"/></g></svg>
