<svg xmlns="http://www.w3.org/2000/svg" viewBox="0 0 1920 1080"><defs><style>.cls-1{fill:#6662fa;}.cls-2{fill:#5885c6;}.cls-3{fill:#6c6ee4;}.cls-4{fill:#5889fe;}.cls-5{fill:#4a66ee;}.cls-6{fill:#4b67db;}.cls-7{fill:#dc3086;}.cls-8{fill:#df10c2;}.cls-9{fill:#4085fe;}.cls-10{fill:#5889fb;}.cls-11{fill:#5884c4;}</style></defs><g id="Ebene_1" data-name="Ebene 1"><path class="cls-1" d="M433.49,504l-39.39-4.56L339,498.65c-2.07,19.08-.82,56.39-1.24,85.42-.41,19.9,1.66,40.21,4.56,101.16l1.66,21.57c-13.27,8.7-38.56,10.36-77.54,8.29l-1.65-28.61,4.56-107,3.31-81.69a341.9,341.9,0,0,0-54.31.42L186,504c-2.49-12.44-2.49-31.92-2.49-38.14,0-2.49,3.32-23.22,6.22-32.76l26.12,3.32c26.12.41,46.85-.42,93.29,0,33.17.41,87.9-3.32,87.9-3.32l36.49-2.07C436.39,441.85,436,487,433.49,504Z"/><path class="cls-2" d="M553.35,615.49c0-2.73-.35-6.16-.35-9.23-1-18.48-7.86-99.91-9.92-121.8,20.53-5.82,50.64-5.14,61.59-3.42,2.39,16.76.68,33.52,2.39,52.34,1.71,20.53,2.05,53,4.11,84.51,1.36,21.9,3.76,77,5.47,99.22l-59.53,1.37-1.37-48.59C554.71,648,554.37,630.2,553.35,615.49Z"/><path class="cls-3" d="M798,686.26V686c-8.16,18.43-26.58,33.83-65.55,33.83-22.65,0-43.79-9.06-55.88-23.56-26-30.8-29.6-76.11-29.6-107.22,0-46.21,26-111.15,88.5-111.15,41.68,0,70.08,30.51,73.1,67.66l1.51,22.35c-20.84,8.15-36.85,7.55-55.58,6.64,1.81-13.29,2.42-21.44,2.12-25.37,0-2.11-.31-4.23-.31-5.74,0-13-9.06-21.14-20.84-21.14-24.46,0-34.73,38.36-34.73,62.52a353.16,353.16,0,0,0,1.51,37.45c.9,13,3.93,27.19,9.66,37.76,5.44,10.27,13.29,15.7,21.75,15.7,7.55,0,14.2-2.71,17.82-6,4.53-7.24,6.65-17.51,6.65-38L810.71,634l-.6,10.88C807.69,662.4,805.27,672.67,798,686.26Z"/><path class="cls-4" d="M993.22,514.49h.36l-42.27,34.69h.36c-2.89,2.17-11.2,7.58-22.76,14.81l.36-.36-5.42,3.61c17.34,18.43,27.82,30.35,32.88,35a523.65,523.65,0,0,0,45.88,43l28.55,23.85c-2.53,10.84-5.42,20.59-9.4,28.18a73.93,73.93,0,0,1-19.15,22.76l-40.1-35.77c-12.65-11.56-40.11-42.63-53.47-62.14-.73,20.6,0,54.2-1.09,68.65-.36,4.69.36,22,0,25.29-22,5.78-42.27,4.33-61.42-5.42L848,690.45c.36-40.11,1.44-80.57,1.8-121,0-10.48.73-27.82,2.17-51.3,1.08-23.85,1.45-80.57,1.45-91.77,22.76-5.42,43.35-5.06,61.42-1.09L909.76,508c16.26-11.56,40.1-27.82,62.5-48.41l19.51-17.71c18.79,13,31.44,27.46,38.3,41.55L1012,498.23Z"/><path class="cls-5" d="M518.33,621.14s-31.41,5.74-46.21,5.74l.91-22.35c0-5.14-1.51-11.18-5.44-10.27-7.55,1.81-11.18,3.92-23.26,17.52l-7.25,10.87c-.3,11.78-1.2,25.07-.6,38.66.3,14.2,0,16.31,2.41,51.65l-55.57-.91.3-24.16c1.81-35,3-53.16,2.12-94.54-.31-16.31-.91-24.16-2.42-41.38,11.78-5.13,50.44-9.66,50.44-9.66.6,13,1.81,28.39,1.81,28.39,6.65-6,22.66-23.56,32-24.77,15.71-2.11,26,2.12,35.34,12.39,8.76,8.75,15.1,30.2,14.8,43.19Z"/><path class="cls-6" d="M571.46,457.12c-44-1.61-45.09-58.45,0-59.84C615.75,397.42,615.25,457.34,571.46,457.12Z"/><path class="cls-7" d="M1395.88,401.4c-5.48,42.75-11.07,85.49-16.39,128.26-1.35,10.85-8.54,44.87-21,46.67-14.3,2.06-28.59,4.12-42.12-8-11.35-.84-7.49-37.37-6-46.44,5-30.94,9.4-61.95,14.46-92.88,3.93-24,4.92-48,1.46-72.12-4-27.7-18.52-45.53-38.9-48.09-25.23-3.17-55,13-61.42,38.71-5.18,20.76-9.29,19.66-29.4,24.24-1.88.43-9.35-.7-11.31-.61-36.48,1.65-40-6.52-28.14-42.72,18.74-57.12,76.88-93.34,140-87.26,51.3,5,88.2,46,96.87,107.37A269.7,269.7,0,0,1,1395.88,401.4Z"/><path class="cls-8" d="M1369.05,680.92c-1.55,42.79,6.94,38.18-42.16,37-5.48-.13-11-2.59-16.39-2.4-17.38.61-18.93-9.21-15.89-22.61.61-2.71,1.17-5.44,1.57-8.18,5.64-39.2,5.63-39.2,46.2-36.43C1370.42,650.26,1370.42,650.26,1369.05,680.92Z"/><path class="cls-9" d="M1182.12,720.31c-4.61-5.93-9.22-28.65-9.55-40.84-11.86,9.22-29.64,17.46-43.15,17.78-22.06-.32-36.56-8.56-48.41-21.4-11.2-12.52-17.13-28.66-17.46-46.77-1-19.44,4-37.55,14.49-56.33,14.49-24.7,36.23-34.58,66.86-35.9,6.26-.33,14.17,2,18.78,4.28-.66-19.43-2-37.55-4.94-54.68-2.31-16.46-4.28-29-4.61-38.53-.66-10.87-2.11-7.3.86-24.09,24.7-4.29,42.75-4.84,58.23,5l.52,3.24a130.33,130.33,0,0,0-1,23.71c.32,6.26,1.31,17.13,3,31.29,2.63,26,4.28,94.2,6.92,131.09,2.3,29,5.93,64.56,14.49,88.61l-9.88,4.94C1219.34,716.36,1209.13,719.32,1182.12,720.31ZM1169.28,635c-.33-6.58-1.32-11.85-1.32-15.15-.66-6.59-1.32-20.09-2.31-31.29-6.58-3.62-10.86-4.61-12.18-4.28-7.58,1.32-15.48,3.62-23.06,14.16a52.49,52.49,0,0,0-10.21,33.27c.66,12.52,5.6,18.11,13.83,18.11C1143.26,649.82,1154.79,644.88,1169.28,635Z"/><path class="cls-2" d="M1502.71,717.6c-4.26,0-9.24,0-29.51-3.56-1.78-36.62-7.11-107.39-14.22-172.81,19.2-6.05,39.47-8.54,60.09-5.69l2.49,22.4-.36-.71c1.07,6.4,2.85,32.71,5.69,64.71,1.43,15.65,4.63,49.43,6.4,90.68C1533.29,712.62,1513,716.89,1502.71,717.6Z"/><path class="cls-6" d="M1481.72,497.81c-16.72,0-35.56-13.51-35.56-31.29s18.13-30.94,35.56-30.94c18.84,0,34.13,13.16,35.56,30.94C1516.21,485,1500.21,497.81,1481.72,497.81Z"/><path class="cls-10" d="M1676.84,726.36a7.6,7.6,0,0,1,1.44-.69q3.73-1,7.5-1.86a8.51,8.51,0,0,1,1.6-.06Z"/><path class="cls-10" d="M1570.73,655.06c-.15-2.38-.46-4.78-.4-7.16.12-5.57.14-11.18.73-16.71.55-5,4.39-7.68,8.54-9.78s8.78-1.89,13.27-2.13a72.15,72.15,0,0,1,10-.24c6.65.57,10.92,4.41,12.68,10.76a141.16,141.16,0,0,0,12.77,31.63c5.55,9.87,13.49,17,24.39,20.64,12.44,4.14,23.23,1.4,32.56-7.65,8.51-8.24,13.81-18.36,17.36-29.51a158,158,0,0,0,7.46-56.29c-.74-14.86-4.22-28.92-12.52-41.51a49.09,49.09,0,0,0-13.35-13.56c-7.26-5-15-5.59-23.07-2.53a70.78,70.78,0,0,0-31,22.3,63.09,63.09,0,0,0-11.47,21.4c-1.76,5.94-3.19,12-4.53,18a8.21,8.21,0,0,1-5.17,6.48c-9.72,4.22-19.9,5.23-30.31,5.13a11.53,11.53,0,0,1-1.85-.22c-5.72-.94-8.24-3.6-8.79-9.32a124.58,124.58,0,0,1,.48-30.57,75.9,75.9,0,0,1,7.3-23.72c3.82-7.38,9.16-13.68,14.8-19.67,11.73-12.44,26-21.25,41.45-28.25a82.67,82.67,0,0,1,25.45-6.71c.67-.07,1.33-.27,2-.4h.07l.5.14.06,0c.62,0,1.24,0,1.86,0,6.93-.12,13.86-.09,20.69,1.22a91.93,91.93,0,0,1,39.2,17.41,101.15,101.15,0,0,1,27.67,32.87c2.53,4.68,4.55,9.63,6.81,14.46.34.94.69,1.89,1,2.83l3,7.9,3,12.2a10.78,10.78,0,0,0,0,1.27c.43,4.83,1.19,9.65,1.24,14.49A184.81,184.81,0,0,1,1756,649c-7.44,23.34-19.83,43.49-39,59.1-7.26,5.92-15.09,10.88-24.11,13.75-1.2.38-2.33,1-3.49,1.44l-2,.49a8.51,8.51,0,0,0-1.6.06q-3.77.88-7.5,1.86a7.6,7.6,0,0,0-1.44.69l-1.65.41a5.21,5.21,0,0,0-1.1-.09,101.27,101.27,0,0,1-21.09,1c-19.47-1.37-37-7.85-51.7-20.82-11.74-10.34-19.45-23.61-25.7-37.78-1.22-2.77-2.33-5.6-3.48-8.4Z"/><path class="cls-11" d="M1669.69,349a18.78,18.78,0,0,1,13.36-8c2.33-.3,4.78.42,7.18.67,8.78,5.14,11,14.19,13.53,23,3.89,13.34,7.49,26.77,11.46,40.08,3.58,12,7.5,23.93,11.23,35.9,3.63,11.65,7.32,23.28,10.78,35,2.55,8.67,4.82,17.42,7.12,26.16,1.84,7,3.57,14,5.29,21.07q3.39,13.83,6.68,27.68a5.46,5.46,0,0,1,0,1.15c-2.26-4.83-4.28-9.78-6.81-14.46a101.15,101.15,0,0,0-27.67-32.87,91.93,91.93,0,0,0-39.2-17.41c-6.83-1.31-13.76-1.34-20.69-1.22-.62,0-1.24,0-1.86,0a2.44,2.44,0,0,0,.06-1c-2.61-7.89-5.27-15.75-7.88-23.64q-4.74-14.31-9.41-28.66c-1.93-5.9-3.91-11.8-5.69-17.75-1.69-5.68-3.29-11.4-4.68-17.16a13.6,13.6,0,0,1,1.55-9.68c2.15-4,5.84-6.17,10-7.56a7.73,7.73,0,0,1,7.4,1.18,15.56,15.56,0,0,1,3.75,3.62c5.42,8.25,10.69,16.6,16,24.9.47.74,1,1.42,1.54,2.12l.33-.22-.56-2.28-1.68-10.41c-.92-6.7-2-13.38-2.73-20.09-.93-8.12-1.61-16.27-.13-24.41A54.19,54.19,0,0,1,1669.69,349Z"/><path class="cls-11" d="M1654.08,486.88l.5.13Z"/></g></svg>