<!DOCTYPE svg PUBLIC "-//W3C//DTD SVG 20010904//EN" "http://www.w3.org/TR/2001/REC-SVG-20010904/DTD/svg10.dtd">
<svg version="1.0" xmlns="http://www.w3.org/2000/svg" width="666px" height="375px" viewBox="0 0 6660 3750" preserveAspectRatio="xMidYMid meet">
<g id="layer101" fill="#314c5b" stroke="none">
 <path d="M2134 3526 c-19 -14 -20 -20 -11 -78 10 -68 25 -103 65 -157 21 -29 26 -48 32 -140 4 -58 12 -117 18 -131 11 -28 45 -67 104 -117 20 -17 44 -44 53 -60 9 -15 28 -49 43 -74 38 -65 126 -159 150 -159 22 0 36 25 25 43 -3 7 -27 37 -53 67 -54 64 -90 121 -90 143 0 9 19 22 48 33 94 35 116 82 63 135 -43 42 -101 41 -142 -3 -16 -18 -32 -41 -35 -50 -22 -69 -123 95 -124 200 l0 34 49 -7 c36 -5 57 -2 81 10 31 16 32 19 27 63 -4 38 -12 53 -46 84 -33 31 -48 38 -80 38 -32 0 -44 -5 -57 -25 l-16 -25 -19 38 c-11 20 -22 54 -26 75 -3 21 -13 47 -22 58 -14 18 -18 18 -37 5z m186 -213 c0 -15 2 -16 10 -3 6 9 10 10 10 3 0 -6 7 -19 16 -27 12 -13 13 -16 1 -16 -7 0 -17 3 -21 8 -4 4 -13 7 -19 7 -7 0 -13 10 -15 23 -2 12 1 22 7 22 6 0 11 -8 11 -17z m190 -328 c0 -3 -2 -5 -5 -5 -3 0 -5 2 -5 5 0 3 2 5 5 5 3 0 5 -2 5 -5z"/>
 <path d="M2749 3502 c-69 -71 -100 -157 -67 -190 25 -25 46 -13 56 32 9 42 55 116 73 116 14 0 29 37 23 54 -10 25 -56 18 -85 -12z"/>
 <path d="M3646 3438 c-3 -7 -9 -64 -15 -126 -6 -62 -16 -132 -23 -155 -12 -42 -53 -117 -64 -117 -3 0 -19 14 -36 30 -43 43 -100 42 -140 -2 -38 -43 -42 -108 -7 -143 16 -16 31 -20 81 -18 l61 3 -6 -54 c-6 -58 -51 -158 -99 -218 -31 -40 -31 -78 0 -78 23 0 33 9 63 55 71 110 97 181 104 286 2 34 8 65 13 68 22 15 72 103 92 161 23 71 41 233 31 283 -5 23 -13 33 -29 35 -12 2 -24 -3 -26 -10z m-166 -437 c0 -16 -26 -31 -52 -31 -33 0 -37 21 -10 48 15 16 19 17 40 4 12 -8 22 -17 22 -21z"/>
 <path d="M3423 2993 c4 -3 10 -3 14 0 3 4 0 7 -7 7 -7 0 -10 -3 -7 -7z"/>
 <path d="M3937 3423 c-4 -3 -7 -34 -7 -68 0 -66 15 -93 45 -81 18 6 21 106 5 137 -11 19 -31 25 -43 12z"/>
 <path d="M2920 3331 c-45 -8 -47 -24 -20 -131 22 -86 41 -124 67 -134 18 -7 93 13 93 26 0 4 7 8 15 8 29 0 34 33 14 90 -11 30 -27 76 -36 103 -16 46 -18 47 -57 46 -23 -1 -57 -4 -76 -8z m90 -77 c0 -8 -4 -14 -10 -14 -5 0 -10 -7 -10 -16 0 -10 6 -14 14 -11 20 8 42 -53 24 -65 -20 -12 -25 -10 -52 25 -35 46 -44 94 -20 99 28 6 54 -3 54 -18z"/>
 <path d="M4534 3321 c-34 -15 -74 -70 -80 -111 l-6 -38 -60 44 c-68 50 -113 57 -143 24 -23 -25 -17 -118 9 -132 9 -5 16 -14 16 -21 0 -22 69 -57 125 -63 47 -6 56 -10 61 -31 4 -13 4 -32 1 -42 -6 -24 34 -64 60 -59 27 5 28 55 3 139 -20 66 -21 77 -9 132 27 120 119 139 248 52 l45 -30 -44 -6 c-32 -4 -50 -14 -67 -35 -12 -16 -23 -34 -23 -40 0 -13 47 -49 77 -58 32 -10 52 -48 55 -107 2 -38 7 -55 18 -56 33 -6 45 16 52 94 4 43 11 105 14 138 6 60 6 60 -36 108 -60 68 -127 99 -220 104 -41 1 -84 -1 -96 -6z m-137 -208 c9 -24 -7 -28 -41 -9 -37 19 -62 58 -51 75 7 13 83 -42 92 -66z"/>
 <path d="M1677 3284 c-13 -13 -7 -36 32 -118 44 -91 118 -172 191 -209 37 -18 46 -28 52 -59 10 -47 46 -99 100 -143 23 -20 53 -45 65 -56 29 -27 57 -21 61 11 2 21 -10 37 -63 84 -36 31 -72 71 -80 86 -17 33 -14 37 43 70 37 23 42 55 12 87 -20 22 -46 21 -110 -4 -14 -6 -36 -9 -50 -7 -38 6 -136 115 -173 193 -22 46 -38 67 -52 69 -12 2 -24 0 -28 -4z"/>
 <path d="M4542 3195 c0 -16 2 -22 5 -12 2 9 2 23 0 30 -3 6 -5 -1 -5 -18z"/>
 <path d="M1316 3117 c-24 -21 -60 -96 -73 -154 -9 -39 -38 -55 -110 -60 -76 -6 -103 -18 -151 -63 -39 -38 -67 -95 -82 -172 -6 -32 -18 -64 -25 -72 -8 -8 -31 -43 -52 -78 -38 -63 -38 -64 -38 -173 0 -70 7 -142 19 -197 19 -87 20 -88 49 -88 33 0 33 -8 5 155 -21 122 -11 218 30 287 19 33 32 35 54 9 22 -26 81 -36 128 -22 30 9 41 19 52 48 33 80 -23 159 -104 149 -41 -4 -43 -1 -29 37 27 71 134 133 187 108 26 -11 26 -14 20 -71 -13 -110 38 -210 105 -210 43 0 69 17 85 55 31 76 15 162 -42 223 -24 26 -44 55 -44 67 1 36 40 138 60 158 28 26 70 10 136 -51 55 -50 134 -159 134 -184 0 -9 -13 -21 -30 -28 -35 -15 -73 -61 -89 -113 -23 -69 20 -127 94 -127 50 0 101 55 116 127 11 56 30 69 49 33 7 -13 21 -20 41 -20 29 0 30 1 27 42 -3 40 -5 43 -40 50 -46 9 -93 50 -120 103 -96 189 -276 305 -362 232z m10 -404 c8 -41 -4 -93 -21 -93 -7 0 -21 20 -31 45 -15 40 -15 51 -4 86 l14 41 18 -24 c10 -13 20 -37 24 -55z m324 -10 c0 -16 -9 -39 -20 -53 -11 -14 -18 -18 -14 -9 3 10 1 20 -5 24 -7 4 -11 -5 -11 -22 0 -22 -2 -25 -10 -13 -11 17 -5 44 18 78 20 31 42 28 42 -5z m-602 -89 c15 -4 22 -14 22 -30 0 -45 -68 -56 -90 -14 -8 15 -5 22 12 34 25 18 25 18 56 10z"/>
 <path d="M3017 2834 c-4 -4 -7 -26 -7 -49 0 -52 -22 -106 -49 -123 -12 -7 -21 -23 -21 -37 0 -21 5 -25 28 -25 55 0 115 105 110 189 -3 41 -6 46 -28 49 -14 2 -29 0 -33 -4z"/>
 <path d="M5179 2790 c-46 -46 -27 -86 54 -111 34 -11 37 -15 37 -50 0 -31 -6 -43 -37 -68 -21 -17 -43 -31 -49 -31 -20 0 -36 -28 -29 -50 9 -29 46 -25 100 11 56 38 73 63 83 120 l7 44 100 5 c99 5 100 5 100 30 0 25 -1 25 -102 30 -87 4 -104 8 -117 25 -9 11 -16 23 -16 27 0 4 -10 16 -22 28 -32 29 -74 26 -109 -10z"/>
 <path d="M1008 2713 c6 -2 18 -2 25 0 6 3 1 5 -13 5 -14 0 -19 -2 -12 -5z"/>
 <path d="M1890 2275 c0 -3 2 -5 5 -5 3 0 5 2 5 5 0 3 -2 5 -5 5 -3 0 -5 -2 -5 -5z"/>
 <path d="M2170 2275 c0 -3 2 -5 5 -5 3 0 5 2 5 5 0 3 -2 5 -5 5 -3 0 -5 -2 -5 -5z"/>
 <path d="M2980 2275 c0 -3 2 -5 5 -5 3 0 5 2 5 5 0 3 -2 5 -5 5 -3 0 -5 -2 -5 -5z"/>
 <path d="M5673 2258 c-27 -28 -30 -79 -9 -120 14 -27 14 -28 -10 -34 -14 -4 -63 -4 -109 -2 -69 4 -90 9 -124 31 -53 35 -91 36 -91 2 0 -14 4 -25 9 -25 5 0 22 -11 38 -24 15 -13 53 -31 85 -40 63 -18 188 -22 205 -5 6 6 53 15 104 21 205 22 204 22 207 41 7 36 -17 48 -86 45 l-66 -3 -10 42 c-14 53 -42 82 -87 89 -27 5 -38 1 -56 -18z"/>
 <path d="M3603 2234 c-6 -26 -14 -38 -24 -35 -8 2 -42 6 -77 9 -54 4 -67 1 -100 -20 -21 -14 -48 -45 -61 -71 -21 -41 -22 -52 -16 -142 4 -53 11 -92 14 -86 5 7 15 0 29 -18 29 -40 98 -71 156 -71 45 0 48 -1 42 -23 -12 -50 -26 -207 -20 -236 6 -30 8 -31 63 -31 31 0 67 6 80 13 21 11 24 19 26 92 8 235 27 487 40 538 8 32 15 65 15 72 0 21 -29 33 -97 40 l-60 7 -10 -38z m130 4 c20 -8 26 -16 22 -27 -15 -39 -26 -128 -35 -286 -5 -93 -13 -218 -16 -278 l-7 -107 -36 -11 c-20 -6 -50 -9 -66 -7 -30 3 -30 3 -29 68 0 36 4 102 8 147 l9 82 -36 -6 c-110 -17 -206 81 -207 211 0 136 106 212 220 157 43 -21 50 -19 50 16 0 47 17 64 58 58 20 -4 50 -11 65 -17z"/>
 <path d="M3480 2071 c-15 -30 -12 -62 10 -99 23 -37 57 -54 83 -40 13 7 17 22 17 66 0 57 -1 59 -35 75 -46 22 -62 21 -75 -2z m83 -17 c23 -8 25 -102 2 -111 -29 -10 -88 63 -78 97 3 8 6 21 8 27 3 9 10 10 27 3 13 -6 31 -13 41 -16z"/>
 <path d="M2166 2252 c-2 -4 -8 -71 -12 -148 -3 -76 -12 -202 -18 -279 -7 -77 -11 -145 -9 -152 3 -6 14 -14 26 -17 33 -9 135 -7 141 2 5 9 29 419 30 527 l1 70 -77 3 c-42 2 -79 -1 -82 -6z m144 -39 c0 -16 -5 -144 -12 -285 -9 -211 -14 -258 -26 -263 -9 -3 -42 -3 -74 1 l-59 7 6 51 c13 117 25 316 25 412 l0 104 70 0 c70 0 70 0 70 -27z"/>
 <path d="M2482 2230 c-22 -16 -52 -49 -66 -73 -57 -97 -62 -279 -10 -384 79 -162 286 -175 364 -22 21 40 29 124 14 138 -5 5 -42 12 -81 16 l-73 7 6 -44 c8 -55 -8 -88 -40 -88 -42 0 -60 43 -64 155 -3 83 -1 108 14 140 27 55 48 65 76 37 20 -20 21 -25 11 -64 -13 -49 -10 -57 17 -40 11 7 43 12 72 12 29 0 59 4 67 9 26 17 -7 129 -56 187 -25 29 -74 44 -148 44 -53 0 -68 -4 -103 -30z m173 9 c55 -15 93 -54 110 -113 25 -83 24 -86 -45 -86 l-59 0 -7 38 c-9 48 -20 62 -53 62 -34 0 -45 -8 -67 -50 -28 -53 -27 -220 2 -275 43 -83 114 -67 114 27 l0 48 43 0 c68 0 87 -9 87 -39 0 -79 -53 -160 -117 -182 -52 -17 -126 -7 -172 24 -28 19 -49 45 -72 93 -30 61 -33 75 -33 153 1 150 43 248 124 289 49 24 85 27 145 11z"/>
 <path d="M2852 2250 l-22 -9 5 -218 c2 -120 7 -261 10 -313 4 -52 2 -116 -3 -142 l-9 -48 31 -4 c64 -10 156 -12 159 -3 1 5 -1 47 -6 94 -5 47 -6 87 -3 90 5 5 40 -23 137 -106 35 -30 44 -33 67 -25 27 10 92 86 92 109 0 8 -8 16 -17 19 -10 3 -34 21 -54 38 -49 45 -149 127 -168 138 -14 7 -11 14 19 46 19 21 53 54 74 73 22 20 64 59 94 87 l55 51 -17 44 c-20 50 -52 89 -74 89 -17 0 -202 -183 -202 -199 0 -6 46 34 101 90 l101 100 24 -22 c14 -13 29 -40 36 -60 l11 -38 -129 -125 -129 -126 25 -20 c14 -11 71 -57 127 -103 56 -45 102 -86 102 -90 1 -5 -19 -29 -43 -55 l-45 -47 -38 36 c-52 50 -143 119 -155 119 -6 0 -9 -36 -7 -97 l4 -98 -67 0 c-36 0 -69 2 -72 5 -3 3 -7 163 -8 355 l-3 350 42 9 c23 5 53 6 67 2 26 -6 26 -8 26 -104 0 -53 4 -103 9 -111 14 -22 17 0 11 114 l-5 110 -65 2 c-36 1 -75 -2 -88 -7z"/>
 <path d="M4723 2250 c-85 -12 -145 -59 -182 -140 -37 -80 -19 -191 33 -204 29 -7 96 11 97 27 0 7 0 35 -1 64 -3 115 68 159 146 91 84 -73 130 -185 104 -248 -23 -55 -105 -52 -169 6 -41 36 -56 40 -112 24 -47 -13 -53 -37 -26 -92 33 -65 89 -98 181 -109 46 -5 87 -4 101 1 28 11 30 4 44 -148 7 -75 13 -98 29 -115 18 -18 25 -19 47 -9 14 7 28 19 32 28 4 12 11 5 27 -27 19 -39 25 -44 58 -47 53 -4 59 14 38 123 -9 50 -22 126 -29 170 -7 44 -18 103 -26 130 -7 28 -20 86 -30 130 -27 128 -45 169 -101 232 -53 60 -126 107 -179 115 -16 3 -53 1 -82 -2z m145 -36 c86 -43 192 -181 192 -251 0 -12 11 -69 25 -128 29 -123 78 -386 79 -429 1 -17 -6 -33 -16 -40 -24 -15 -51 13 -76 78 -19 49 -19 49 -26 20 -10 -37 -24 -54 -47 -54 -27 0 -32 14 -48 150 l-16 125 -81 -4 c-104 -3 -172 22 -215 82 -41 57 -39 83 9 96 52 15 55 14 83 -15 51 -56 151 -73 189 -32 26 28 27 107 1 165 -25 55 -97 132 -140 150 -27 12 -39 12 -63 2 -40 -17 -58 -57 -58 -132 0 -59 -2 -65 -22 -71 -69 -18 -98 9 -98 92 0 173 170 275 328 196z"/>
 <path d="M1445 2240 c-6 -9 7 -330 19 -477 3 -37 1 -42 -21 -48 -13 -3 -61 -1 -105 5 -44 6 -81 10 -83 8 -10 -11 -8 -158 3 -175 6 -9 85 -13 297 -16 160 -2 300 -8 313 -12 21 -7 22 -5 22 52 0 33 -3 81 -6 106 l-6 45 -116 -5 -115 -6 6 256 c5 196 3 258 -6 264 -22 13 -194 16 -202 3z m165 -10 l36 -10 -1 -256 0 -257 90 2 c50 1 99 4 111 7 19 5 22 0 27 -40 4 -25 4 -66 0 -91 l-6 -45 -51 6 c-28 4 -162 8 -298 8 l-247 1 -6 50 c-9 71 -4 111 15 107 8 -2 57 -6 109 -9 l94 -6 -6 94 c-13 186 -19 427 -13 438 9 14 99 14 146 1z"/>
 <path d="M1757 2243 c-5 -4 2 -403 7 -411 3 -5 23 -13 43 -16 21 -4 50 -9 66 -12 25 -5 27 -3 27 28 l0 33 25 -28 c30 -32 86 -37 124 -11 32 23 61 90 61 146 l0 47 -47 6 c-91 13 -88 14 -88 -28 0 -44 -5 -45 -40 -13 -25 24 -26 27 -24 142 l1 118 -77 0 c-42 1 -77 0 -78 -1z m139 -107 c-8 -107 4 -153 48 -181 32 -21 46 -12 46 31 0 37 2 38 63 28 36 -6 37 -8 37 -51 0 -60 -22 -109 -59 -127 -42 -22 -55 -20 -94 14 -19 17 -37 30 -41 30 -3 0 -6 -14 -6 -31 l0 -32 -52 7 c-28 4 -55 9 -59 12 -4 2 -7 92 -8 199 l0 195 66 0 66 0 -7 -94z"/>
 <path d="M3908 2223 c-30 -3 -39 -9 -44 -28 -8 -31 14 -131 32 -150 21 -20 147 -21 163 -1 8 9 11 45 9 98 l-3 83 -60 1 c-33 1 -77 -1 -97 -3z m147 -88 l0 -80 -55 -7 c-99 -12 -113 1 -114 107 -1 47 0 50 29 56 17 4 55 6 85 6 l55 -2 0 -80z"/>
 <path d="M4296 2209 c-3 -8 -10 -77 -16 -154 -6 -77 -13 -156 -17 -177 -7 -47 16 -60 94 -56 l57 3 2 40 c2 22 8 107 15 188 6 81 8 151 5 155 -4 3 -36 8 -71 10 -49 3 -66 1 -69 -9z m94 -6 l33 -6 -7 -121 c-4 -67 -10 -148 -14 -181 l-7 -60 -53 1 c-29 1 -55 4 -58 7 -5 5 14 293 22 334 3 18 14 26 45 32 4 0 21 -2 39 -6z"/>
 <path d="M2330 1930 c0 -7 3 -10 7 -7 3 4 3 10 0 14 -4 3 -7 0 -7 -7z"/>
 <path d="M3932 1924 c-28 -19 -30 -83 -6 -205 9 -46 17 -137 18 -201 1 -116 1 -117 -28 -147 -20 -21 -39 -31 -59 -31 -43 0 -94 35 -107 74 -18 56 -42 70 -113 68 -72 -3 -91 -19 -81 -67 19 -94 85 -179 169 -220 44 -22 68 -27 134 -27 69 0 87 3 125 26 71 41 110 100 131 197 15 73 16 95 5 188 -21 192 -40 302 -55 332 -14 26 -21 29 -63 29 -27 0 -57 -7 -70 -16z m105 -2 c21 -13 34 -63 54 -206 35 -257 23 -369 -53 -460 -112 -136 -367 -83 -447 94 -25 55 -27 105 -5 114 20 8 82 8 110 0 14 -4 28 -22 39 -50 20 -52 66 -84 122 -84 41 0 67 19 92 67 17 33 13 163 -9 307 -26 167 -26 191 2 210 24 17 75 21 95 8z"/>
 <path d="M710 1779 c0 -11 7 -45 16 -75 8 -29 14 -67 12 -84 l-3 -31 -20 38 c-40 76 -78 103 -144 103 -31 0 -44 -6 -60 -26 -42 -54 -18 -102 78 -155 64 -35 87 -65 97 -126 9 -57 -15 -100 -61 -109 -27 -5 -48 0 -89 20 -85 42 -92 53 -77 135 10 55 10 77 0 110 -12 41 -49 91 -67 91 -25 0 -63 -45 -76 -91 -13 -43 -13 -55 0 -100 9 -28 13 -53 11 -56 -19 -18 -174 61 -239 122 -45 44 -81 50 -86 16 -3 -17 6 -33 30 -55 112 -102 196 -146 297 -153 57 -5 71 -10 101 -38 50 -47 96 -67 166 -73 53 -4 66 -1 93 19 50 37 65 79 63 174 -2 78 -1 82 28 110 25 24 30 37 30 75 0 26 -9 77 -21 113 -19 62 -23 67 -50 67 -23 0 -29 -4 -29 -21z m-83 -143 c38 -36 25 -51 -20 -21 -20 14 -37 30 -37 35 0 18 31 10 57 -14z m-227 -124 c0 -20 -4 -31 -10 -27 -5 3 -10 25 -10 48 0 31 3 38 10 27 5 -8 10 -30 10 -48z"/>
 <path d="M4273 1750 c-24 -10 -43 -39 -43 -65 0 -31 55 -75 94 -75 103 0 113 142 10 147 -21 1 -49 -2 -61 -7z m95 -20 c27 -25 28 -50 4 -80 -35 -44 -122 -18 -122 36 0 27 43 64 74 64 12 0 32 -9 44 -20z"/>
 <path d="M5524 1623 c-79 -27 -84 -98 -9 -140 52 -29 163 -47 242 -39 62 6 63 6 74 -21 21 -55 22 -118 4 -156 -9 -21 -24 -37 -32 -37 -9 0 -33 16 -54 35 -61 55 -139 43 -139 -20 0 -38 56 -94 106 -106 53 -14 57 -19 56 -76 0 -53 -41 -127 -82 -148 -26 -13 -30 -13 -45 1 -8 9 -22 29 -30 44 -17 34 -65 70 -92 70 -28 -1 -63 -36 -74 -75 -14 -51 5 -85 64 -113 59 -28 60 -48 6 -97 -61 -55 -98 -67 -193 -63 -77 3 -81 2 -84 -19 -5 -33 32 -47 121 -46 117 2 196 50 258 159 27 47 61 74 92 74 23 0 86 74 102 119 8 24 15 73 15 108 0 60 3 70 38 116 36 50 37 54 36 132 0 129 -14 226 -33 232 -9 3 -34 13 -56 23 -131 58 -213 70 -291 43z m214 -74 c12 -5 22 -16 22 -25 0 -15 -9 -16 -74 -11 -61 5 -111 18 -135 33 -1 2 0 8 4 14 7 12 142 4 183 -11z m-168 -643 c0 -14 -28 -5 -46 15 -15 17 -16 22 -4 29 9 6 19 1 32 -15 10 -13 18 -26 18 -29z"/>
 <path d="M2184 1613 c-44 -6 -67 -35 -68 -84 -1 -52 30 -79 93 -82 37 -1 47 3 67 28 34 42 33 97 -2 124 -15 12 -34 20 -43 19 -9 0 -30 -3 -47 -5z m74 -29 c25 -18 30 -68 8 -97 -22 -29 -76 -33 -109 -7 -75 59 21 160 101 104z"/>
 <path d="M978 1547 c-10 -8 -18 -21 -18 -29 0 -8 -18 -44 -40 -81 -44 -73 -49 -96 -22 -119 34 -30 210 -110 229 -104 13 4 24 30 41 105 29 127 21 153 -61 200 -66 37 -106 46 -129 28z m131 -118 c35 -25 39 -52 16 -95 -8 -16 -15 -37 -15 -46 0 -25 -19 -22 -69 12 -24 17 -50 30 -57 30 -15 0 -28 35 -18 52 37 69 49 79 81 74 17 -2 46 -15 62 -27z"/>
 <path d="M1310 1525 c0 -3 2 -5 5 -5 3 0 5 2 5 5 0 3 -2 5 -5 5 -3 0 -5 -2 -5 -5z"/>
 <path d="M4650 1475 c0 -26 7 -43 26 -60 15 -14 31 -25 36 -25 6 0 25 -7 43 -16 50 -23 80 -16 80 20 0 26 -5 31 -53 47 -30 10 -63 30 -74 44 -10 14 -28 25 -39 25 -15 0 -19 -7 -19 -35z"/>
 <path d="M760 1374 c0 -8 5 -12 10 -9 6 3 10 10 10 16 0 5 -4 9 -10 9 -5 0 -10 -7 -10 -16z"/>
 <path d="M4976 1198 c-10 -40 -6 -162 7 -188 7 -14 28 -30 47 -37 48 -16 175 -17 188 0 6 7 14 51 17 97 7 76 5 87 -11 101 -24 21 -136 49 -196 49 -39 0 -47 -3 -52 -22z m146 -48 c47 -13 60 -37 50 -87 -6 -29 -13 -39 -31 -41 -61 -9 -101 31 -101 103 0 40 14 44 82 25z"/>
 <path d="M1970 1145 c-14 -8 -36 -20 -50 -27 -66 -32 -80 -48 -80 -88 0 -31 6 -43 26 -57 34 -23 62 -52 99 -101 52 -69 89 -66 155 14 25 30 46 64 48 74 4 21 -142 200 -162 200 -6 0 -22 -7 -36 -15z m84 -121 l46 -55 -28 -35 c-15 -19 -32 -34 -39 -34 -6 0 -20 15 -31 33 -12 17 -34 45 -51 61 -38 37 -39 51 -3 69 45 24 59 19 106 -39z"/>
 <path d="M1358 978 c-10 -8 -21 -42 -28 -84 -20 -126 14 -239 94 -304 27 -22 41 -25 126 -28 82 -3 98 -7 120 -27 71 -64 208 -102 308 -84 113 20 141 42 144 112 2 39 -2 51 -26 76 -15 16 -37 31 -47 34 -19 5 -49 -16 -49 -33 0 -11 29 -40 40 -40 4 0 10 -7 14 -15 23 -61 -96 -94 -214 -59 -57 17 -129 58 -131 74 -1 6 -2 41 -3 78 -1 73 -17 109 -61 138 -28 18 -64 13 -89 -12 -24 -23 -20 -83 9 -129 13 -22 25 -43 25 -47 0 -5 -19 -8 -41 -8 -52 0 -100 29 -131 78 -21 33 -23 49 -23 154 0 122 -8 148 -37 126z"/>
 <path d="M975 953 c-11 -2 -30 -6 -42 -8 -12 -3 -40 -21 -62 -41 -32 -29 -38 -40 -31 -54 17 -32 39 -31 73 1 38 37 72 52 98 44 16 -5 19 -1 19 23 0 18 -6 32 -16 36 -9 3 -16 5 -17 5 -1 -1 -11 -3 -22 -6z"/>
 <path d="M2438 853 c-8 -10 -18 -38 -22 -63 -4 -24 -16 -59 -27 -77 -23 -37 -18 -53 16 -53 52 0 108 156 70 194 -20 20 -19 20 -37 -1z"/>
 <path d="M2863 823 c4 -3 10 -3 14 0 3 4 0 7 -7 7 -7 0 -10 -3 -7 -7z"/>
 <path d="M2802 756 c-18 -24 -32 -48 -32 -54 0 -5 -9 -17 -20 -27 -30 -28 -25 -57 18 -86 77 -54 150 -61 173 -16 7 12 23 35 35 50 15 17 24 42 24 61 0 28 -8 39 -56 74 -75 56 -101 55 -142 -2z m124 -67 c3 -6 1 -16 -5 -22 -6 -6 -11 -19 -11 -29 0 -29 -42 -43 -76 -27 -40 19 -41 43 -4 89 l32 40 29 -20 c15 -12 31 -26 35 -31z"/>
 <path d="M3574 656 c-6 -15 38 -135 59 -164 15 -19 7 -21 -41 -12 -47 8 -83 3 -94 -14 -4 -6 -8 -29 -8 -52 0 -32 6 -46 33 -72 27 -26 41 -32 77 -32 l44 0 -22 -22 c-20 -20 -33 -23 -100 -23 -64 0 -87 5 -133 28 -81 39 -84 45 -49 98 39 58 38 90 -2 132 -25 26 -48 36 -97 47 -58 12 -66 12 -97 -5 -19 -10 -37 -29 -40 -41 -8 -32 12 -87 46 -126 23 -26 26 -34 14 -36 -31 -7 -64 9 -118 59 -46 42 -61 50 -81 45 -33 -8 -32 -25 8 -74 61 -78 90 -92 186 -92 74 0 92 -4 126 -25 69 -42 118 -63 180 -76 79 -16 163 1 208 41 28 25 32 34 35 100 5 88 -9 164 -47 256 -25 57 -34 70 -55 72 -17 2 -28 -2 -32 -12z m-300 -162 c16 -6 21 -48 10 -78 -11 -29 -48 -18 -74 22 -13 20 -28 43 -33 50 -7 9 1 12 36 12 25 0 52 -3 61 -6z m334 -103 c3 -8 -4 -12 -19 -9 -12 1 -24 9 -27 16 -2 8 4 11 19 9 13 -2 25 -9 27 -16z"/>
 <path d="M4820 569 c-60 -72 -65 -106 -21 -147 16 -15 36 -42 45 -59 23 -46 58 -68 86 -53 23 12 160 128 172 145 18 24 4 46 -59 97 -127 102 -150 104 -223 17z m152 -49 c26 -19 47 -40 48 -46 0 -14 -85 -94 -100 -94 -11 0 -70 88 -70 105 0 13 60 77 69 73 3 -2 28 -19 53 -38z"/>
 <path d="M4357 542 c-23 -25 -21 -41 6 -70 l22 -24 -28 -24 c-38 -32 -99 -33 -121 -2 -9 12 -19 37 -22 55 -4 19 -15 38 -25 43 -29 16 -74 12 -92 -8 -22 -24 -21 -50 3 -90 11 -18 20 -37 20 -42 0 -20 -68 -10 -106 16 -40 27 -94 83 -94 97 0 5 -15 7 -32 5 -52 -5 -47 -31 17 -93 95 -94 197 -128 252 -85 22 17 41 20 119 20 92 0 93 0 131 35 35 32 43 35 99 35 71 0 117 26 112 64 -3 23 -15 24 -95 11 -41 -7 -45 -6 -81 34 -41 45 -60 50 -85 23z"/>
 </g>
<g id="layer102" fill="#5288ed" stroke="none">
 <path d="M3619 2239 c-5 -10 -9 -28 -9 -42 0 -35 -9 -38 -51 -17 -46 24 -76 25 -127 5 -109 -44 -126 -223 -30 -322 34 -35 111 -59 155 -48 l26 6 -7 -70 c-3 -39 -9 -103 -13 -142 -5 -55 -3 -73 8 -80 19 -12 60 -11 96 1 l30 11 7 117 c4 64 11 187 16 273 5 86 14 187 21 224 14 80 10 86 -61 95 -43 5 -53 4 -61 -11z m-64 -163 c34 -15 35 -16 35 -74 0 -71 -16 -92 -55 -74 -49 23 -78 98 -55 143 13 23 29 24 75 5z"/>
 <path d="M2878 2238 l-28 -10 1 -166 c1 -92 4 -248 8 -347 l6 -180 36 -9 c20 -5 52 -6 72 -2 l36 7 -6 101 c-5 85 -4 100 8 93 26 -16 104 -79 146 -119 l42 -39 48 47 48 48 -45 41 c-52 46 -179 147 -204 162 -15 9 -6 22 66 95 46 47 105 103 131 125 43 34 48 42 43 68 -7 33 -42 87 -57 87 -18 0 -115 -89 -170 -156 -29 -35 -56 -64 -61 -64 -4 0 -8 49 -8 109 l0 109 -31 6 c-39 7 -47 7 -81 -6z"/>
 <path d="M2170 2133 c0 -60 -7 -187 -15 -283 -7 -96 -13 -175 -12 -176 8 -7 124 -13 133 -7 9 7 35 424 34 546 0 27 0 27 -70 27 l-70 0 0 -107z"/>
 <path d="M4665 2216 c-86 -40 -125 -103 -125 -198 0 -63 20 -98 56 -98 52 0 64 16 64 81 0 70 20 116 57 130 87 33 223 -117 223 -246 0 -72 -21 -95 -86 -95 -52 0 -76 10 -120 52 -30 28 -33 29 -78 17 -56 -14 -59 -32 -15 -93 45 -64 86 -80 199 -82 l95 -1 16 -127 c15 -124 24 -145 55 -146 15 0 29 19 41 55 l10 30 16 -49 c27 -78 59 -104 87 -71 11 13 10 30 -3 93 -9 42 -23 120 -32 172 -9 52 -26 138 -39 190 -13 52 -27 116 -30 141 -13 89 -97 195 -191 240 -75 36 -132 37 -200 5z"/>
 <path d="M4333 2203 c-14 -3 -25 -13 -27 -26 -8 -41 -27 -329 -22 -334 3 -3 29 -6 58 -7 l53 -1 11 115 c7 63 12 145 13 183 1 60 -1 67 -18 67 -11 0 -25 2 -33 4 -7 2 -23 1 -35 -1z"/>
 <path d="M4330 1725 c0 -3 2 -5 5 -5 3 0 5 2 5 5 0 3 -2 5 -5 5 -3 0 -5 -2 -5 -5z"/>
 <path d="M4315 1650 c-3 -5 1 -10 10 -10 9 0 13 5 10 10 -3 6 -8 10 -10 10 -2 0 -7 -4 -10 -10z"/>
 </g>
<g id="layer103" fill="#6166f0" stroke="none">
 <path d="M3643 2253 c4 -3 10 -3 14 0 3 4 0 7 -7 7 -7 0 -10 -3 -7 -7z"/>
 <path d="M2510 2228 c-81 -41 -123 -139 -124 -289 0 -78 3 -92 33 -153 23 -48 44 -74 72 -93 46 -31 120 -41 172 -24 64 22 117 103 117 182 0 30 -19 39 -87 39 l-43 0 0 -48 c0 -94 -71 -110 -114 -27 -29 55 -30 222 -2 275 22 42 33 50 67 50 33 0 44 -14 53 -62 l7 -38 59 0 c69 0 70 3 45 86 -17 59 -55 98 -110 113 -60 16 -96 13 -145 -11z"/>
 <path d="M2953 2243 c4 -3 10 -3 14 0 3 4 0 7 -7 7 -7 0 -10 -3 -7 -7z"/>
 <path d="M3220 2245 c0 -3 2 -5 5 -5 3 0 5 2 5 5 0 3 -2 5 -5 5 -3 0 -5 -2 -5 -5z"/>
 <path d="M1464 2229 c-6 -11 0 -252 13 -438 l6 -94 -94 6 c-52 3 -101 7 -109 9 -19 4 -24 -36 -15 -107 l6 -50 247 -1 c136 0 270 -4 298 -8 l51 -6 6 45 c4 25 4 66 0 91 -5 40 -8 45 -27 40 -12 -3 -61 -6 -111 -7 l-90 -2 0 257 1 256 -36 10 c-47 13 -137 13 -146 -1z"/>
 <path d="M2860 2235 c0 -3 2 -5 5 -5 3 0 5 2 5 5 0 3 -2 5 -5 5 -3 0 -5 -2 -5 -5z"/>
 <path d="M4700 2235 c0 -3 2 -5 5 -5 3 0 5 2 5 5 0 3 -2 5 -5 5 -3 0 -5 -2 -5 -5z"/>
 <path d="M4810 2235 c0 -3 2 -5 5 -5 3 0 5 2 5 5 0 3 -2 5 -5 5 -3 0 -5 -2 -5 -5z"/>
 <path d="M1771 2035 c1 -107 4 -197 8 -199 4 -3 31 -8 59 -12 l52 -7 0 32 c0 17 3 31 6 31 4 0 22 -13 41 -30 39 -34 52 -36 94 -14 37 18 59 67 59 127 0 43 -1 45 -37 51 -61 10 -63 9 -63 -28 0 -43 -14 -52 -46 -31 -44 28 -56 74 -48 181 l7 94 -66 0 -66 0 0 -195z"/>
 <path d="M3750 2220 c0 -7 3 -10 7 -7 3 4 3 10 0 14 -4 3 -7 0 -7 -7z"/>
 <path d="M4670 2225 c0 -3 2 -5 5 -5 3 0 5 2 5 5 0 3 -2 5 -5 5 -3 0 -5 -2 -5 -5z"/>
 <path d="M4840 2225 c0 -3 2 -5 5 -5 3 0 5 2 5 5 0 3 -2 5 -5 5 -3 0 -5 -2 -5 -5z"/>
 <path d="M4650 2215 c0 -3 2 -5 5 -5 3 0 5 2 5 5 0 3 -2 5 -5 5 -3 0 -5 -2 -5 -5z"/>
 <path d="M4860 2215 c0 -3 2 -5 5 -5 3 0 5 2 5 5 0 3 -2 5 -5 5 -3 0 -5 -2 -5 -5z"/>
 <path d="M3260 2205 c0 -3 2 -5 5 -5 3 0 5 2 5 5 0 3 -2 5 -5 5 -3 0 -5 -2 -5 -5z"/>
 <path d="M4340 2205 c0 -3 2 -5 5 -5 3 0 5 2 5 5 0 3 -2 5 -5 5 -3 0 -5 -2 -5 -5z"/>
 <path d="M4370 2205 c0 -3 2 -5 5 -5 3 0 5 2 5 5 0 3 -2 5 -5 5 -3 0 -5 -2 -5 -5z"/>
 <path d="M4630 2205 c0 -3 2 -5 5 -5 3 0 5 2 5 5 0 3 -2 5 -5 5 -3 0 -5 -2 -5 -5z"/>
 <path d="M4880 2205 c0 -3 2 -5 5 -5 3 0 5 2 5 5 0 3 -2 5 -5 5 -3 0 -5 -2 -5 -5z"/>
 <path d="M3450 2195 c0 -3 2 -5 5 -5 3 0 5 2 5 5 0 3 -2 5 -5 5 -3 0 -5 -2 -5 -5z"/>
 <path d="M3150 2185 c0 -3 2 -5 5 -5 3 0 5 2 5 5 0 3 -2 5 -5 5 -3 0 -5 -2 -5 -5z"/>
 <path d="M3420 2185 c0 -3 2 -5 5 -5 3 0 5 2 5 5 0 3 -2 5 -5 5 -3 0 -5 -2 -5 -5z"/>
 <path d="M3570 2175 c0 -3 2 -5 5 -5 3 0 5 2 5 5 0 3 -2 5 -5 5 -3 0 -5 -2 -5 -5z"/>
 <path d="M3380 2155 c0 -3 2 -5 5 -5 3 0 5 2 5 5 0 3 -2 5 -5 5 -3 0 -5 -2 -5 -5z"/>
 <path d="M4700 2125 c0 -3 2 -5 5 -5 3 0 5 2 5 5 0 3 -2 5 -5 5 -3 0 -5 -2 -5 -5z"/>
 <path d="M3074 2108 c-4 -7 -3 -8 4 -4 7 4 12 9 12 12 0 8 -9 4 -16 -8z"/>
 <path d="M4820 2105 c0 -3 2 -5 5 -5 3 0 5 2 5 5 0 3 -2 5 -5 5 -3 0 -5 -2 -5 -5z"/>
 <path d="M3240 2085 c0 -3 2 -5 5 -5 3 0 5 2 5 5 0 3 -2 5 -5 5 -3 0 -5 -2 -5 -5z"/>
 <path d="M4845 2080 c3 -5 8 -10 11 -10 3 0 2 5 -1 10 -3 6 -8 10 -11 10 -3 0 -2 -4 1 -10z"/>
 <path d="M3550 2075 c0 -3 2 -5 5 -5 3 0 5 2 5 5 0 3 -2 5 -5 5 -3 0 -5 -2 -5 -5z"/>
 <path d="M5010 2075 c0 -3 2 -5 5 -5 3 0 5 2 5 5 0 3 -2 5 -5 5 -3 0 -5 -2 -5 -5z"/>
 <path d="M3570 2065 c0 -3 2 -5 5 -5 3 0 5 2 5 5 0 3 -2 5 -5 5 -3 0 -5 -2 -5 -5z"/>
 <path d="M3020 2045 c0 -3 2 -5 5 -5 3 0 5 2 5 5 0 3 -2 5 -5 5 -3 0 -5 -2 -5 -5z"/>
 <path d="M2990 2030 c0 -7 3 -10 7 -7 3 4 3 10 0 14 -4 3 -7 0 -7 -7z"/>
 <path d="M3180 2035 c0 -3 2 -5 5 -5 3 0 5 2 5 5 0 3 -2 5 -5 5 -3 0 -5 -2 -5 -5z"/>
 <path d="M4890 2025 c0 -3 2 -5 5 -5 3 0 5 2 5 5 0 3 -2 5 -5 5 -3 0 -5 -2 -5 -5z"/>
 <path d="M3160 2015 c0 -3 2 -5 5 -5 3 0 5 2 5 5 0 3 -2 5 -5 5 -3 0 -5 -2 -5 -5z"/>
 <path d="M3124 1978 l-19 -23 23 19 c12 11 22 21 22 23 0 8 -8 2 -26 -19z"/>
 <path d="M5050 1985 c0 -3 2 -5 5 -5 3 0 5 2 5 5 0 3 -2 5 -5 5 -3 0 -5 -2 -5 -5z"/>
 <path d="M3090 1945 c0 -3 2 -5 5 -5 3 0 5 2 5 5 0 3 -2 5 -5 5 -3 0 -5 -2 -5 -5z"/>
 <path d="M4930 1945 c0 -3 2 -5 5 -5 3 0 5 2 5 5 0 3 -2 5 -5 5 -3 0 -5 -2 -5 -5z"/>
 <path d="M4400 1935 c0 -3 2 -5 5 -5 3 0 5 2 5 5 0 3 -2 5 -5 5 -3 0 -5 -2 -5 -5z"/>
 <path d="M4650 1935 c0 -3 2 -5 5 -5 3 0 5 2 5 5 0 3 -2 5 -5 5 -3 0 -5 -2 -5 -5z"/>
 <path d="M3540 1925 c0 -3 2 -5 5 -5 3 0 5 2 5 5 0 3 -2 5 -5 5 -3 0 -5 -2 -5 -5z"/>
 <path d="M3560 1925 c0 -3 2 -5 5 -5 3 0 5 2 5 5 0 3 -2 5 -5 5 -3 0 -5 -2 -5 -5z"/>
 <path d="M5060 1915 c0 -3 2 -5 5 -5 3 0 5 2 5 5 0 3 -2 5 -5 5 -3 0 -5 -2 -5 -5z"/>
 <path d="M3035 1870 c3 -5 8 -10 11 -10 3 0 2 5 -1 10 -3 6 -8 10 -11 10 -3 0 -2 -4 1 -10z"/>
 <path d="M5070 1875 c0 -3 2 -5 5 -5 3 0 5 2 5 5 0 3 -2 5 -5 5 -3 0 -5 -2 -5 -5z"/>
 <path d="M2290 1865 c0 -3 2 -5 5 -5 3 0 5 2 5 5 0 3 -2 5 -5 5 -3 0 -5 -2 -5 -5z"/>
 <path d="M4670 1865 c0 -3 2 -5 5 -5 3 0 5 2 5 5 0 3 -2 5 -5 5 -3 0 -5 -2 -5 -5z"/>
 <path d="M4630 1855 c0 -3 2 -5 5 -5 3 0 5 2 5 5 0 3 -2 5 -5 5 -3 0 -5 -2 -5 -5z"/>
 <path d="M2852 1830 c0 -14 2 -19 5 -12 2 6 2 18 0 25 -3 6 -5 1 -5 -13z"/>
 <path d="M3100 1825 c0 -3 2 -5 5 -5 3 0 5 2 5 5 0 3 -2 5 -5 5 -3 0 -5 -2 -5 -5z"/>
 <path d="M3490 1815 c0 -3 2 -5 5 -5 3 0 5 2 5 5 0 3 -2 5 -5 5 -3 0 -5 -2 -5 -5z"/>
 <path d="M4920 1815 c0 -3 2 -5 5 -5 3 0 5 2 5 5 0 3 -2 5 -5 5 -3 0 -5 -2 -5 -5z"/>
 <path d="M4800 1795 c0 -3 2 -5 5 -5 3 0 5 2 5 5 0 3 -2 5 -5 5 -3 0 -5 -2 -5 -5z"/>
 <path d="M4620 1785 c0 -3 2 -5 5 -5 3 0 5 2 5 5 0 3 -2 5 -5 5 -3 0 -5 -2 -5 -5z"/>
 <path d="M4645 1750 c3 -5 8 -10 11 -10 3 0 2 5 -1 10 -3 6 -8 10 -11 10 -3 0 -2 -4 1 -10z"/>
 <path d="M4276 1729 c-14 -11 -26 -31 -26 -43 0 -54 87 -80 122 -36 24 30 23 55 -4 80 -28 26 -58 26 -92 -1z m64 -4 c0 -3 -2 -5 -5 -5 -3 0 -5 2 -5 5 0 3 2 5 5 5 3 0 5 -2 5 -5z m-5 -75 c3 -5 -1 -10 -10 -10 -9 0 -13 5 -10 10 3 6 8 10 10 10 2 0 7 -4 10 -10z"/>
 <path d="M3000 1725 c0 -3 2 -5 5 -5 3 0 5 2 5 5 0 3 -2 5 -5 5 -3 0 -5 -2 -5 -5z"/>
 <path d="M3220 1725 c0 -3 2 -5 5 -5 3 0 5 2 5 5 0 3 -2 5 -5 5 -3 0 -5 -2 -5 -5z"/>
 <path d="M3020 1715 c0 -3 2 -5 5 -5 3 0 5 2 5 5 0 3 -2 5 -5 5 -3 0 -5 -2 -5 -5z"/>
 <path d="M4760 1685 c0 -3 2 -5 5 -5 3 0 5 2 5 5 0 3 -2 5 -5 5 -3 0 -5 -2 -5 -5z"/>
 <path d="M4900 1685 c0 -3 2 -5 5 -5 3 0 5 2 5 5 0 3 -2 5 -5 5 -3 0 -5 -2 -5 -5z"/>
 <path d="M3280 1675 c0 -3 2 -5 5 -5 3 0 5 2 5 5 0 3 -2 5 -5 5 -3 0 -5 -2 -5 -5z"/>
 <path d="M3700 1675 c0 -3 2 -5 5 -5 3 0 5 2 5 5 0 3 -2 5 -5 5 -3 0 -5 -2 -5 -5z"/>
 <path d="M3110 1645 c0 -3 2 -5 5 -5 3 0 5 2 5 5 0 3 -2 5 -5 5 -3 0 -5 -2 -5 -5z"/>
 <path d="M3560 1645 c0 -3 2 -5 5 -5 3 0 5 2 5 5 0 3 -2 5 -5 5 -3 0 -5 -2 -5 -5z"/>
 <path d="M2152 1580 c-51 -48 -5 -128 67 -116 40 6 60 30 61 73 0 58 -82 86 -128 43z"/>
 <path d="M3000 1595 c0 -3 2 -5 5 -5 3 0 5 2 5 5 0 3 -2 5 -5 5 -3 0 -5 -2 -5 -5z"/>
 <path d="M3200 1575 c0 -3 2 -5 5 -5 3 0 5 2 5 5 0 3 -2 5 -5 5 -3 0 -5 -2 -5 -5z"/>
 <path d="M2860 1535 c0 -3 2 -5 5 -5 3 0 5 2 5 5 0 3 -2 5 -5 5 -3 0 -5 -2 -5 -5z"/>
 <path d="M2890 1525 c0 -3 2 -5 5 -5 3 0 5 2 5 5 0 3 -2 5 -5 5 -3 0 -5 -2 -5 -5z"/>
 <path d="M2983 1523 c4 -3 10 -3 14 0 3 4 0 7 -7 7 -7 0 -10 -3 -7 -7z"/>
 <path d="M3570 1525 c0 -3 2 -5 5 -5 3 0 5 2 5 5 0 3 -2 5 -5 5 -3 0 -5 -2 -5 -5z"/>
 <path d="M5140 1515 c0 -3 2 -5 5 -5 3 0 5 2 5 5 0 3 -2 5 -5 5 -3 0 -5 -2 -5 -5z"/>
 <path d="M5060 1465 c0 -3 2 -5 5 -5 3 0 5 2 5 5 0 3 -2 5 -5 5 -3 0 -5 -2 -5 -5z"/>
 <path d="M4980 1415 c0 -3 2 -5 5 -5 3 0 5 2 5 5 0 3 -2 5 -5 5 -3 0 -5 -2 -5 -5z"/>
 </g>
<g id="layer104" fill="#dc2a8d" stroke="none">
 <path d="M3915 2211 c-29 -6 -30 -9 -29 -56 1 -106 15 -119 114 -107 l55 7 0 80 0 80 -55 2 c-30 0 -68 -2 -85 -6z"/>
 <path d="M3942 1914 c-28 -19 -28 -43 -2 -210 22 -144 26 -274 9 -307 -25 -48 -51 -67 -92 -67 -56 0 -102 32 -122 84 -11 28 -25 46 -39 50 -28 8 -90 8 -110 0 -37 -14 -3 -129 57 -193 51 -54 140 -91 217 -91 81 0 135 24 178 76 76 91 88 203 53 460 -20 143 -33 193 -54 206 -20 13 -71 9 -95 -8z"/>
 </g>

</svg>